<svg class="mediapart-logo-icon paperboy paperboy-logo" aria-hidden="true" focusable="false" xmlns="http://www.w3.org/2000/svg" viewBox="0 0 52 30"><path fill="#FC392B" fill-rule="evenodd" d="M30.191 9.132a.64.64 0 0 1-.019.164l.049-.025.048-.026c.527-.263 1.056-.532 1.583-.806l-.274-1.38-1.4 1.982.002.01c.004.025.009.05.011.081ZM20.352 28.55h-.05c-.439-.006-1.464-.02-2.556-.048-1.459-.04-2.974-.094-3.487-.21a.69.69 0 0 0-.052-.014c-.056-.014-.11-.027-.212-.114l-.04-.04-.024-.055c-.61-1.38-1.188-4.118-1.19-6.63 0-1.15.123-2.25.438-3.152l.094-.266 1.346.29c.118-.395.258-.733.427-.997l.094-.142h.17a.97.97 0 0 1 .282.06l.112.034c.161.051.368.124.605.21a84.969 84.969 0 0 1 2.105.79c.075.03.149.058.221.085.506-1.184 1.083-2.168 1.712-2.993-.554.1-1.158.159-1.832.162h-.022c-.825-.006-1.687-.325-2.38-.715a6.02 6.02 0 0 1-.866-.597l-4.559-2.71 1.241 5.478-5.32-1.808L8.96 20.27l-5.58-.658 3.361 4.503-5.596.513 4.223 3.702L0 29.995h22.287c-.626-.102-1.282-.699-1.935-1.446Zm26.516-.218L52 29.997V30H31.596c.382-3.042.93-8.415.93-14.323 0-.798-.091-1.457-.253-2.01-.246-1.245 2.039-2.745 4.167-4.143l.353-.231.03.193-.605 7.733L42 16.867l2.75.217-1.469 3.192 5.578-.663-3.361 4.503 5.596.513-4.226 3.702Zm-23.896-16.45a.312.312 0 0 1-.01-.026.29.29 0 0 0-.012-.025c-.129-.347-.309-.75-.349-.771a.647.647 0 0 1-.212-.449.9.9 0 0 1 .204-.492.742.742 0 0 0 .118-.201l.038-.08a4.28 4.28 0 0 1-1.32-1.852l-.034.003a.683.683 0 0 1-.11.007h-.035a1.93 1.93 0 0 1-.75-.144l-.873 4.395c.336.078.701.121 1.088.121.73 0 1.515-.153 2.257-.486Zm-5.368-.444c-.438.003-.825.186-1.126.382-.125.082-.252.162-.377.241-.213.136-.422.268-.612.399l-.048-3.706L19 12.045a2.585 2.585 0 0 1-.562-.32 1.358 1.358 0 0 0-.835-.287Z" clip-rule="evenodd"></path><path fill="#fff" fill-rule="evenodd" d="m42.002 16.223 4.53.36.495-7.359-.522-8.297-3.353.333c0 .672-.024 1.129-.137 1.392h2.319v.314H42.13v-.239c-.241-.166-.533-.415-.84-.676a15.728 15.728 0 0 0-.952-.77L36.16.969l1.303 8.487-.554 7.077 5.094-.309Zm-21.93-9.732c.326.626.444.836 1.256.865.832.035 1.901-.958 3.153-2.12l.398-.367c1.019-.92 2.19-1.873 3.595-2.346l-.045-.024a4.587 4.587 0 0 1-.64-.488c-.525-.447-1.117-.952-2.08-.952-1.676-.022-4.406 1.47-5.292 2.985a3.464 3.464 0 0 0-.481 1.708c0 .299.05.562.137.74Zm9.125.513c.01.186-.263.546-.698.618a2.54 2.54 0 0 1-.441.043c-.446-.016-.685-.12-.688-.454.003-.792.516-1.298.991-1.298a.79.79 0 0 1 .137.014c.393.07.702.54.699 1.077Zm-1.97 3.896c1.188-.685 1.793-1.144 2.08-1.424.245-.252.247-.317.245-.336a.12.12 0 0 0-.008-.035 1.04 1.04 0 0 0-.054-.131 1.11 1.11 0 0 0-.108-.188c-3.213 1.082-5.556 1.472-6.18 1.563-.042.073-.083.133-.114.18l-.046.07c.002.006.005.008.01.014.169.186.266.426.37.683l.068.168c.089.24.197.492.256.602a4.52 4.52 0 0 0 .894-.115c.755-.35 1.518-.629 2.273-.876.1-.05.196-.106.297-.165l.018-.01Zm-8.702 3.985h-.035c-.653.002-1.445-.28-2.066-.632-.57-.298-1.002-.736-1.056-.851.043-.159.771-.621 1.457-1.05.239-.16.529-.28.776-.278a.69.69 0 0 1 .446.153c.65.503 1.61.774 2.67.777.815 0 1.693-.172 2.524-.548a.532.532 0 0 0 .056.078l.014.014c.02.021.044.045.075.07a10.94 10.94 0 0 0-2.373 1.942 9.805 9.805 0 0 1-2.488.325Zm-3.683 3.928-1.365-.293c-.949 2.703-.105 7.628.741 9.538.24.239 6.303.295 6.303.295l6.411-.4c2.373.228 1.486-9.89 1.486-9.89l-8.219 1.373s-4.592-1.814-4.893-1.814c-.188.28-.34.69-.464 1.19Z" clip-rule="evenodd"></path><path fill="#1A1A1A" d="m25.253 23.087.317.025.17-2.209-.318-.027-.17 2.211Zm-1.207.057.317.027.178-2.23-.317-.024-.178 2.227Zm-1.203.054.317.026.185-2.251-.317-.027-.185 2.252Zm-1.207.053.317.027.194-2.27-.317-.027-.194 2.27Zm-4.26-2.547-.318-.03-.223 2.354.317.03.223-2.354Zm-1.191-.148-.317-.032-.231 2.375.317.03.23-2.372Zm-1.19-.15-.317-.03-.24 2.397.318.032.239-2.399Zm10.107 3.925.202 2.263.317-.027-.199-2.26-.32.024Zm-1.177.035.223 2.276.317-.032-.223-2.276-.317.032Zm-1.17.033L23 26.69l.317-.032-.247-2.292-.317.033Zm-5.855-.261.362 2.364.315-.048-.363-2.364-.314.048Zm-1.166-.148.386 2.38.315-.05-.39-2.38-.312.05Zm-1.17-.145.412 2.394.314-.054-.41-2.396-.315.056ZM41.294 5.29H38.09v.32h3.203v-.32Zm1.233 1.658h3.203v-.317h-3.203v.317Zm2.942-2.972h-3.203v.32h3.203v-.32Zm-3.028 9.608h3.203v-.317H42.44v.317Zm-.043-7.963H45.6V5.3h-3.203v.32Zm-.056 9.293h3.202v-.317h-3.202v.317Zm.198-2.657h3.203v-.317H42.54v.317Zm.197-2.657h3.205v-.317h-3.205V9.6ZM47.099.228l-4.025.4C42.881.173 42.306 0 41.382 0c-.882 0-1.586.25-1.841.586L35.406.274l.062.395.809 5.266c-1.725 1.09-3.89 2.249-6.008 3.308l-.097.05a.644.644 0 0 0 .02-.163c-.014-.21-.09-.358-.192-.56a1.395 1.395 0 0 0-.19-.268c-.081-.078-.178-.18-.382-.188-.013 0-.03.003-.048.005a4.203 4.203 0 0 0-.322-3.823c1.031-.758 1.536-1.652 1.33-2.074-.012-.003-.826-.228-1.715-.32C28.2 1.622 27.338.42 25.71.416c-1.991.025-4.745 1.527-5.839 3.294a4.038 4.038 0 0 0-.572 2.037c0 .368.059.712.196 1.008.277.669.787 1.233 1.755 1.233l.075-.003c.035 0 .07-.005.105-.008.265.73.725 1.368 1.319 1.851l-.038.08c-.075.21-.28.296-.322.694a.626.626 0 0 0 .212.449c.04.021.22.424.35.77l.02.052a5.547 5.547 0 0 1-2.253.486c-.949.003-1.793-.258-2.282-.642a1.358 1.358 0 0 0-.835-.287c-.438.002-.825.185-1.126.381-.379.247-.782.486-1.104.717-.31.245-.607.428-.642.86 0 .04.005.089.019.14.153.478.671.86 1.364 1.27.694.388 1.553.71 2.38.715h.022a10.842 10.842 0 0 0 1.833-.16c-.629.824-1.207 1.807-1.712 2.992-.21-.083-.43-.166-.65-.252a85.6 85.6 0 0 0-1.677-.626 18.13 18.13 0 0 0-.604-.21c-.175-.05-.242-.083-.395-.094h-.172l-.094.142c-.17.264-.309.602-.427.997l-1.346-.29-.094.266c-.317.903-.438 2.002-.438 3.152.005 2.512.58 5.25 1.19 6.63l.024.054.04.04c.135.113.183.1.264.13.516.115 2.031.169 3.487.21 1.137.029 2.2.042 2.606.048.65.75 1.309 1.343 1.94 1.448h9.302c.381-3.044.93-8.418.93-14.323 0-.798-.092-1.457-.253-2.01-.26-1.314 2.3-2.913 4.52-4.374l.029.193-.605 7.733 5.782-.352 5.124.405.542-8.041L47.1.228ZM30.288 2.531a.11.11 0 0 0 .019.005h-.022l.003-.005ZM15.462 17.856c.425.135 1.46.519 2.407.884l.53.204-.065.164-3.095-.663c.067-.231.143-.428.223-.589Zm2.013 10a74.444 74.444 0 0 1-2.147-.088 10.94 10.94 0 0 1-.728-.065l-.143-.021c-.54-1.295-1.082-3.917-1.082-6.244 0-.986.096-1.919.317-2.674l4.427.951a22.782 22.782 0 0 0-.631 2.233c-.312 1.338-.236 2.389.811 3.96l.108.726.314-.046-.016-.11c.075.1.15.202.234.306.287.366.583.753.881 1.126-.586-.013-1.462-.027-2.345-.053ZM29.197 7.005c.01.186-.263.546-.698.618a2.54 2.54 0 0 1-.441.043c-.446-.016-.685-.12-.688-.454.003-.792.516-1.298.991-1.298a.79.79 0 0 1 .137.014c.393.07.702.54.699 1.077Zm-7.87.352c-.81-.03-.93-.239-1.254-.865-.086-.177-.137-.44-.137-.739 0-.534.164-1.184.48-1.708.887-1.516 3.617-3.007 5.294-2.985 1.362 0 1.982 1.013 2.719 1.44l.045.024c-1.405.473-2.576 1.427-3.595 2.345-1.424 1.312-2.633 2.526-3.552 2.488Zm-2.802 7.529h-.035c-.653.002-1.445-.28-2.066-.632-.57-.298-1.002-.736-1.056-.851.043-.159.771-.621 1.457-1.05.239-.16.529-.28.776-.278a.69.69 0 0 1 .446.153c.65.503 1.61.774 2.67.777.815 0 1.693-.172 2.524-.548a.532.532 0 0 0 .056.078c.024.024.051.053.089.083a10.94 10.94 0 0 0-2.373 1.943 9.805 9.805 0 0 1-2.488.325ZM22.343 27.8a46.53 46.53 0 0 1-.435-1.07l.258-.029-.272-2.305-.317.037.245 2.077c-.887-2.316-.79-2.88-.79-3.35 0-.881.548-2.023 1.502-3.216l4.664-.4c-.196 1.192-.747 4.736-.75 6.88.003.433.02.806.078 1.115l-4.183.261Zm5.642-1.97c-.113.551-.263 1.008-.44 1.298-.135.213-.253.317-.374.363a5.208 5.208 0 0 1-.08-1.067c-.003-2.498.808-7.17.808-7.179l.07-.408-4.839.414c.04-.043.078-.086.121-.13l4.898-.819c.046.626.134 2.034.134 3.58-.002 1.367-.072 2.842-.298 3.949Zm1.322-16.354c-.287.28-.892.74-2.08 1.424a7.162 7.162 0 0 1-.314.175c-.755.247-1.518.526-2.273.876a4.52 4.52 0 0 1-.894.115 6.025 6.025 0 0 1-.256-.602c-.134-.32-.233-.626-.438-.851-.005-.006-.008-.008-.01-.014.026-.045.091-.131.16-.25.624-.09 2.967-.48 6.18-1.563.035.048.078.12.108.188.024.05.043.096.054.131a.12.12 0 0 1 .008.035c.002.02 0 .084-.245.336Zm17.225 7.107-4.53-.36-5.094.309.553-7.077L36.159.968l4.181.314c.613.44 1.306 1.11 1.792 1.445v.24h3.203v-.315h-2.319c.113-.263.137-.72.137-1.392l3.353-.333.521 8.297-.494 7.359Zm-3.893-5.656h3.203v-.317h-3.203v.317ZM40.83 2.652h-3.203v.32h3.203v-.32Zm1.827 5.62h3.202v-.32h-3.202v.32Zm-4.103-.024h3.203v-.317h-3.203v.317Zm2.507-4.277h-3.203v.317h3.203v-.317ZM38.324 6.93h3.203v-.317h-3.203v.317Zm-.065 7.985h3.203v-.317H38.26v.317Zm.455-5.341h3.202v-.317h-3.202v.317Zm-.113 1.335h3.202v-.32h-3.202v.32Zm-.113 1.336h3.202v-.317h-3.202v.317Zm-.113 1.335h3.203v-.317h-3.203v.317Z"></path></svg>
