<svg xmlns="http://www.w3.org/2000/svg" version="1.1" xmlns:xlink="http://www.w3.org/1999/xlink" xmlns:svgjs="http://svgjs.dev/svgjs" viewBox="0 0 1422 800"><g fill="none" stroke-width="2" stroke="hsl(0, 74.8%, 59.6%)" stroke-linecap="round"><path d="M1303.22 162.71C1416.72 180.31 1467.73 200.14 1442.81 222.67 1350.97 246.04 1220.24 273.66 1088.96 306.88 991.74 342.79 954.03 386.3 981.54 438.41 1065.24 493.84 1178.67 557.6 1290.82 628.14 1414.93 762.17 1324.69 880.88 1106.54 930.55 908.04 885.38 852.24 749.74 931.69 591.5 1085.15 534.79 1205.47 638.9 1242.01 874.24 1195.06 1067.81 1086.49 1066.34 962.06 856.61 895.38 740.02 833.96 658.13 779.48 639.26 727.13 693.65 682.4 808.63 644.79 952.24 609.2 1079.08 579.34 1149.5 554.25 1137.82 529.83 1047.91 508.97 907.88 491.37 766.22 473.76 675.93 459.83 667.93 449.97 741.68 440.76 871.66 436.84 1010.38 439.22 1111.56 443.63 1145.18 455.76 1100.02 476.16 992.67 498.7 854.1 528.86 725.32 565.03 639.9 628.44 660.13 679.04 863.06 671.72 1035.5 580.91 1035.03 410.05 859.9 210.44 644.63 84.84 498.98 98.9 485.84 260.74 563.65 442.23 688.4 500.89 783.01 350.97 821.73 225.92 825.31 101.03 816.43 7.39 798.47 -30.03 773.29 -0.73 743.74 89.68 712.98 214.17 679.35 339.71 647.67 428.07 619.78 449.51 591.28 396.72 567.85 283.22 550.25 143.91 532.64 24.57 521.28 -39.07 515.48 -30.37 509.08 47.91 506.97 171.04 507.4 305.45 504.96 413.82 501.9 469.86 495.15 462.07 481.17 396.58 458.8 294.47 424.71 81 325 22.94 172.42 155.14 -6.59 382.85 -138.69 552.2 -176.12 588.19 -76.64 498.41 92.47 362.12 225.88 258.17 189.73 211.16 -19.34 241.89 -253.86 319.61 -299.95 371.56 -227.44 425.5 -110.14 477.98 18.49 532.53 115.92 582.39 152.7 626.26 112.33 669.9 4.37 707.08 -139.5 737.61 -272.98 767.89 -350.24 791.9 -344.08 809.51 -253.83 827.11 -112.19 837.89 29.64 841.9 123.07 845.66 138.27 842.27 73.06 831.82 -46.96 821.16 -183.79 803.91 -290.38 781.29 -334.86 760.76 -306.08 738.09 -212.74 716.64 -83.25 699.94 152.29 727.18 185.37 828.47 28.47 986.68 -170.21 1173.52 -232.59 1309.44 -129.74 1319.59 74.63 1191.99 260.82 1000.95 360.26 905.4 364.86 995.04 304.13 1234.31 231.11 1349.33 191.08 1426.28 158.58 1444.01 135.1 1397.9 114.93 1297.94 104.02 1170.32 101.32 1053.99 101.29 980.88 107.46 975.65 118.39 1042.79 130.14 1163.91 145.1 1303.22 162.71Q1303.22 162.71 1303.22 162.71" opacity="0.57"></path><path d="M1269.22 377.52C1432.23 410.38 1345.98 471.03 1106.24 555.87 931.8 637.85 968.4 732.67 1157.1 817.31 1339.89 862.5 1364.02 852.79 1225.77 769.61 1011.75 651.45 850.14 530.77 803.46 487.57 869.93 575.48 990.2 775.11 1097.08 983.93 1168.35 1057.39 1173.54 939.76 1130.38 717.06 1052.34 602.4 964.45 715.44 887.27 974.44 806.74 1121.3 747.99 999.19 715.13 732.22 679.56 716.59 724.67 1007.03 759.83 674.14 746.03 579.71 686.73 691.26 564.81 884.24 407.28 1013.17 239.84 978.54 130.3 820.67 133.9 618.52 256.56 473.05 436.36 418.11 540.39 447.01 486.8 520.5 279.91 593.1 39.48 682.24 440.44 685.86 317.22 641.28 70.16 608.42 -6.3 567.71 151.45 511.95 394.84 446.29 509.34 350.79 421.71 222.58 216.72 93.03 72.08 -34.58 86.39 -114.15 245.76 -109.88 450.13 -11.6 595.86 147.47 638.95 262.29 584.2 258 487.15 94.87 343.33 -202.84 328.54 96.38 405.27 109.16 467.87 -143 519.63 -321.05 552.49 -219.83 585.35 47.13 597.76 175.98 597.13 41.85 605.25 -204.47 619.28 -298.86 660.37 -160.13 736.61 86.64 859.18 233.76 1019.43 194.54 1167.12 19.94 1269.05 -140.73 1269.02 -185.58 1166.37 -99.31 1000.96 68.53 875.81 237.34 895.71 371.17 1069.83 434.99 1298.9 446.75 1362.72 401.54 980.6 342.9 1269.22 377.52Q1269.22 377.52 1269.22 377.52" opacity="0.50"></path><path d="M1235.22 619.84C1394.26 650.35 1338.56 691.33 1126.99 734.08 929.06 766.76 893.17 781.68 1022.04 761.01 1216.76 712.59 1330.96 624.65 1301.24 518.33 1148.84 449.7 958.46 446.12 814.85 545.2 755.11 720.74 783.64 912.54 859.59 1015.16 960.86 963.06 1038.99 782.51 1079.28 602.39 1094.31 581.08 1077.78 751.96 1045.58 990.64 1004.54 1086.47 964.91 947.29 934.4 698.22 903.88 594.15 883.93 731.35 867.42 962.21 842.08 1075.98 803.1 968.49 735.19 742.05 642.02 566.16 513.64 560.64 365.34 695.85 242.36 875.02 170.03 970.96 189.78 942.14 293.38 808.41 447.59 635.95 568.22 489.09 566.17 388.48 424.59 351.78 207.51 356.19 56.27 392.3 74.79 429.24 260.95 449.21 460.75 470.82 510.26 467.44 351.22 436.93 118.75 406.43 23.26 350.23 136.4 271.08 362.99 193.57 526.27 101.12 522.15 12.12 368.55 -45.17 189.37 -58.74 101.42 -5.18 146.74 94.63 299.03 223.29 476.87 317.05 623.2 305.91 689.29 173.81 683.49 -37.11 621.27 -204.12 543.89 -226.01 481.12 -72.51 425.79 131.56 401.98 221.73 404.07 96.24 413.99 -146.39 437.26 -289.82 467.77 -185.83 498.28 63.23 534.6 208.66 582.22 124.66 637.68 -102.24 717 -255.78 825.21 -212.14 940.86 -9.67 1068.5 198.25 1177.75 282.15 1230.57 211.3 1208.28 55.69 1101.95 -79.85 964.1 -138.95 848 -91.57 834.45 24.08 954.17 177.43 1160.72 315.62 1336.68 416.93 1363.17 490.47 1217.26 531.07 1002.45 555.93 901.08 570.73 1002.75 589.32 1235.22 619.84Q1235.22 619.84 1235.22 619.84" opacity="0.61"></path><path d="M1201.22 593.02C1354.91 621.19 1326.91 632.3 1148.54 623.07 944.05 608.91 848.46 568.51 904.27 504.82 1067.58 447.9 1226.64 395.54 1295.18 379.48 1248.03 425.66 1109.65 541.06 945.57 711.37 800.05 872.73 717.73 970.03 698.14 943.33 731.46 807.04 789.1 628.97 844.26 529.66 902.21 594.72 936.69 795.72 946.69 998.06 951.97 1045.32 938.98 894.71 910.81 664.22 882.65 559.02 840.64 663.2 782.23 875.51 719.12 1028.54 633.4 1000.08 526.63 823.27 422.67 614.85 318.63 505.78 241.9 536.78 218.09 675.49 259.97 826.89 368.57 914.64 495.73 913.83 600.72 826.73 618.54 698.02 520.67 551.8 336.35 431.22 152.39 347.61 75.93 290.47 155.5 260.46 349.12 241.68 516.62 231.32 538.91 215.52 385.22 187.36 168.2 159.19 58.4 119.99 128.26 77.22 324.45 42.88 513.03 21.66 583.38 29.98 507.6 64.78 348.4 138.98 205 241.78 140.5 327.08 187.99 373.75 313.05 337.65 475.78 212.99 617.54 28.2 710.35 -139.84 753.21 -200.17 750.71 -116.39 726.61 71.36 683.36 227.55 647.91 240.02 631.08 76.15 614.18 -147.02 619.27 -256.96 647.44 -151.83 675.61 78.65 725.51 235.02 795.53 198.68 865.49 7.23 952.17 -177.76 1044.24 -222.2 1117.14 -102.27 1166.04 101.06 1166.59 266.69 1117.19 322.72 1015.87 258.82 890.05 134.39 801.9 0.99 787.81 -73.97 881.65 -76.74 1054.37 -17.28 1238.83 81.46 1335.25 187.19 1285.55 299.7 1113 391.33 927.69 458.61 868.69 520.96 984.2 564.85 1201.22 593.02Q1201.22 593.02 1201.22 593.02" opacity="0.89"></path><path d="M1167.22 329.9C1314.21 355.72 1310.56 359.69 1168.27 345.78 972.75 335.68 835.86 317.44 819.27 305.72 920.51 319.3 1073.49 365.37 1199.54 457.67 1254.57 581.92 1214.63 730.01 1107.14 862.72 961.39 929.82 824.51 905.92 722.62 786.51 657.28 632.52 632.82 512.4 633.17 507.32 654.17 636.59 676.11 839.38 687.02 994.47 700.49 998.04 695.84 841.55 670.02 630.22 644.2 525.51 598.43 598.66 536.27 784.56 476.67 958.39 407.76 1000.2 342.01 894.83 296.92 704.39 278.85 535.36 304.4 461.21 366.5 499.7 466.31 614.13 578.23 740.41 651.87 841.56 661.2 875.21 579.28 845.92 426.35 766.65 250.22 663.54 130.05 562.43 127.72 459.53 249.91 377.74 435.47 318.08 567.79 263.05 566.21 223.89 419.22 198.07 218.42 172.25 99.06 160.99 129.01 167.33 285.23 178.3 475.46 213.12 600.04 271.27 608.11 327.64 510.33 388.23 369.67 427.7 241.43 417.21 185.85 346.49 211.82 211.51 305.99 51.39 434.74 -93.65 561.73 -159.03 677.64 -111.78 759.01 34.07 808.64 205.58 835.78 292.05 847.11 235.58 855.63 51.82 858.48 -144.05 870.31 -222.48 896.13 -117.84 921.95 93.48 960.54 255.24 1006.38 261.69 1064.37 22.53 1075.49 -86.27 979.95 166.23 892.75 312.54 801.06 367.06 740.73 333.81 748.61 234.94 834.8 123.92 989.93 39.46 1157.47 -13.04 1278.4 -16.59 1289.26 14.56 1183.61 71.03 1008.07 136.24 861.81 195.03 841.83 257.63 966.42 304.08 1167.22 329.9Q1167.22 329.9 1167.22 329.9" opacity="0.41"></path><path d="M1132.38 152.46C1271.78 175.94 1289.34 197.38 1184.33 221.34 1010.82 251.32 853.5 294.77 776.79 360.23 802.84 440.71 907.81 546.31 1037.96 667.94 1153.21 775.94 1207.3 858.72 1193.61 885.29 1121.49 844.54 1014.17 738.4 900.4 597.9 786.73 488.99 696.42 456.05 631.94 533.43 583.64 695.65 553.15 875.36 531.36 978.1 514.85 944.85 496.97 787.84 473.5 596.11 450.03 493.52 422.07 538.42 394.32 692.5 371.85 869.03 359.64 963.94 367.26 935.52 391.06 802.15 442.71 629.12 520.21 488.72 597.81 421.03 671.43 439.75 712.77 516.78 695.7 627.74 613.79 725.51 474.1 786.95 319.5 813.93 193.48 799.58 150.23 759.3 209.73 699.18 353.69 635.43 518.15 580.03 614.1 521.92 591.78 479.32 452.38 455.85 268.51 432.38 144.75 429.15 140.52 442.99 252.24 454.12 423.49 475.17 575.4 494.61 653.52 494.21 634.96 469.91 544.92 406.76 416.54 309.14 305.89 177.68 244.41 35.95 237.48 -71.83 285.92 -118.39 367.62 -75.14 472.83 40.81 575.88 192.79 663.59 308.96 744.8 320.17 805.93 211.9 850.25 26.32 890.15 -136.81 920.49 -186.47 943.96 -83.88 975.18 188.73 978.02 135.06 928.27 -93.12 881.24 -153.3 816.84 -99.3 747.81 34.03 702.29 198.98 687.55 332.94 725.24 404.46 817.48 408.65 955.96 359.57 1108.78 287.75 1223.26 202.29 1262.88 135.35 1201.96 95.54 988.31 70.38 884.25 116.8 1132.38 152.46Q1132.38 152.46 1132.38 152.46" opacity="0.75"></path><path d="M1099.29 278.12C1228.94 299.25 1262.27 336.22 1192.06 388.78 1049.54 442.77 893.08 513.44 778.54 596.91 736.61 674.86 772.81 751.61 861.5 810.38 978.01 835.13 1079.08 817.23 1141.27 749.14 1161.5 651.35 1135.25 537.15 1077.57 444.31 995.53 415.74 908.19 467.25 828.28 596.57 748.49 758.79 684.05 897.34 635.69 948.33 589.68 886.6 556.46 734.05 535.34 562.23 514.22 463.37 506.19 483.5 512.35 602.92 520.88 766.27 546.89 892.22 590.07 930.93 633.37 873.7 685.92 745.29 735.39 596.51 760.52 465.29 756.44 389.24 708.52 373.52 618.65 412.09 492.53 481.56 354.02 556.24 243.33 633.04 188.19 687.36 214.64 716.18 313.69 731.04 458.13 726.41 592.5 710.43 654.55 689.55 616.94 666.46 487.29 645.34 320.88 624.21 196.29 606.05 163.04 587.1 228.79 563.23 365.34 529.44 517.64 477.97 639.94 412.53 694.87 323.43 679.29 214.07 603.86 106.83 502.36 7.03 406.95 -59.22 328.74 -71.18 290.63 -20.18 290.91 89.03 322.21 215.82 376.06 325.28 437.97 367.03 509.43 312.83 574.41 174.86 626.65 3.35 679.27 -124.21 717.04 -148.62 738.17 -49.76 759.3 122.05 762.79 278.88 750.01 348.76 737.62 305.92 711.06 179.4 676.21 32.66 650.91 -81.17 631.83 -113.73 633.08 -63.17 665.34 51.66 733.77 190.91 839.66 316.38 962.75 412.17 1089.31 460.4 1186.75 468.2 1224.35 441.99 1188.39 400.03 1081.59 358.69 882.51 295.71 868.39 254.85 1099.22 278.11Q1099.29 278.12 1099.29 278.12" opacity="0.72"></path><path d="M1065.28 552.92C1184.45 571.7 1229.91 602.58 1191.75 642.19 1085.55 678.87 947.18 717.99 818.85 751.18 728.96 770.62 697.81 771.06 721.72 743.75 791.59 694.87 881.12 619.1 966.84 526.69 1042.68 445.93 1088.93 387.89 1104.84 377.42 1096.92 427.45 1067.42 534.4 1026.83 677.08 975.93 811.65 925.93 899.65 883.43 904.62 839.33 823.53 806.61 679.89 787.83 528.16 769.05 434.67 765.1 434.11 773.79 518.67 780.88 656.64 796.72 790.61 815.07 875.29 823.12 891.08 821.7 833.77 800.69 727.82 755.83 596.94 682.62 476.51 582.17 387.66 471.84 335.12 360.05 322.62 270.62 338.42 227.16 378.27 241.47 424.25 317.6 464.55 432.17 507.17 559.85 535.3 658.8 547.13 689.72 557.52 640.45 553.22 521.28 534.44 372.83 515.66 252.13 483.3 197.92 437.49 222 390.25 315.38 327.95 444.68 252.8 578.2 179.96 679.73 103.05 731.88 34.26 731.31 -10.47 687.14 -24.93 619.19 2.99 535.61 67.23 461.31 165.39 407.08 276.73 367.83 363.12 353.12 403.6 357.51 374.04 374.05 275.6 399.73 130.94 427.32 -14.27 458.03 -106.08 484.39 -109.32 503.17 -15.83 521.95 135.89 532.27 283.33 536.97 371.67 544.79 373.94 553.27 296.63 569.26 175.82 597.41 46.91 643.03 -43.19 711.21 -73.67 794.37 -43.64 895.63 36.65 1003.83 142.02 1096.39 259.03 1162.84 361.76 1182.98 439.59 1150.4 495.84 1065.72 526.32 945.97 539.42 830.44 538.77 747.73 533.81 730.86 532.54 792.28 528.35 916.76 534.13 1065.21 552.91Q1065.28 552.92 1065.28 552.92" opacity="0.85"></path><path d="M1031.21 640.43C1194.22 673.29 1109.32 683.55 884.87 645.88 696.11 582.15 667.63 460.61 756.03 346.84 901.55 349.67 999.81 505.93 1028.56 752.15 1023.78 880.24 989.67 761.13 956.81 494.15 923.95 392.93 895.45 554.62 843.27 773.65 757.58 855.45 608.03 731.81 419.44 534.58 287.97 355.09 281.6 273.14 446.27 256.57 646.64 280.12 718.22 291.83 555.21 258.97 308.15 226.11 233.93 151.79 374.55 71.29 607.25 30.91 757.92 61.58 773.95 197.99 682.8 352.15 573.49 440.94 509.06 335.06 460.93 91.94 461.19 -83.06 494.05 18.15 526.91 285.13 589.26 417.56 694.35 313.56 815.72 91.42 976.32 -29.97 1110.54 10.26 1137.57 167.09 1021.75 339.92 813.15 460.59 696.61 555.22 784.15 607.57 1031.21 640.43Q1031.21 640.43 1031.21 640.43" opacity="0.72"></path><path d="M997.29 433.7C1150.93 461.87 1122.83 439.8 958.96 378.54 759.78 329.93 637.17 286.67 615.78 310.67 676.8 426.15 761.47 621.6 819.5 800.01 874.34 836.9 886.72 690.71 858.56 460.23 830.39 355.03 764.34 451.69 660.69 640.38 553.85 794.08 425.22 804.52 327.28 703.41 311.76 539.97 404.49 393.69 583.02 298.36 726.25 225.73 742.93 184.32 589.29 156.16 372.25 127.99 265.92 115.73 325.39 139.55 501.17 186.07 684.62 288.39 796.48 414.91 829.27 479.1 800.59 438.79 763.12 264.44 711.19 55.11 692.63 -52.96 720.8 52.23 748.95 282.71 821.16 440.31 921.9 424.07 1008.19 266.3 1080.84 100.73 1084.99 22.16 1010.07 35.08 856.5 122.3 701.35 219.72 662.49 329.79 780.2 405.53 997.22 433.69Q997.29 433.7 997.29 433.7" opacity="0.41"></path><path d="M963.29 185.68C1102.22 209.15 1117.84 213.69 1022.31 217.83 862.57 243.68 710.83 306.96 612.44 426.02 567.48 646.53 618.17 693.93 599.9 426.23 576.43 323.64 521.31 363.33 450.79 496.41 395.12 657.91 357.17 756.19 372.02 768.91 439.65 713.28 566.5 619.38 709.03 531.69 787.35 438.27 762.22 375.37 623.29 351.9 439.39 328.43 319.33 346.6 311.74 399.35 404.89 446.36 551.31 503.63 687.58 528.5 800.51 485.02 864.21 361.84 893.82 183.13 904.38 32.85 913.37 -16.35 936.84 86.23 978.17 358.68 1023.71 362.9 928.03 185.6 761.76 83.98 714.56 142.11 963.22 185.67Q963.29 185.68 963.29 185.68" opacity="0.24"></path><path d="M929.22 200C1048.42 218.78 1091.86 257.8 1057.91 319.81 964.3 389.29 844.26 488 734.24 602.44 635.57 698.03 568.64 762.45 528.65 758.26 500.21 682.64 480.79 543.95 462.01 392.22 443.23 298.68 426.87 294.99 422.77 364.79 430.22 483.81 467.84 597.53 541.91 673.05 627.31 717.21 727.43 718.18 807.28 695.69 827.47 659.6 776.42 625.29 657.22 606.51 508.77 587.73 392.35 586.26 341.63 589.81 356.61 579.76 428.66 549.48 523.39 480.72 632.35 380.58 725.34 246.94 791.21 114.16 850.54 30.6 888.64 26.68 907.42 120.22 926.2 271.95 923.87 418.25 897.08 507.63 863.76 525.58 800.08 481.08 715.73 410.11 645.6 320.28 593.47 250.87 592.26 213.94 656.74 184.47 780.77 181.22 929.22 200Q929.22 200 929.22 200" opacity="0.54"></path><path d="M895.29 459.15C1048.93 487.31 1020.43 601.07 897.7 709.94 735.52 725.67 622.95 588.71 594.78 358.23 566.61 253.03 628.19 334.9 753.45 462.43 839.26 593.75 844.93 636.49 691.29 608.32 474.24 580.15 375.27 486.41 411.41 318.17 525.83 153.73 636.26 49.03 664.43 154.23 692.59 384.71 633.17 544.5 555.66 565.69 556.44 493.74 678.24 430.98 895.29 459.15Q895.29 459.15 895.29 459.15" opacity="0.69"></path><path d="M861.22 645.86C1027.93 683.42 891.5 624.42 853.95 324.22 816.39 233.23 891.93 392.66 725.22 355.1 451.92 317.55 434.56 97.23 472.12 188.22 509.67 488.42 587.92 608.31 861.22 645.86Q861.22 645.86 861.22 645.86" opacity="0.44"></path></g></svg>